<?xml version="1.0" standalone="no"?>
<!DOCTYPE svg PUBLIC "-//W3C//DTD SVG 1.1//EN" "http://www.w3.org/Graphics/SVG/1.1/DTD/svg11.dtd" >
<svg xmlns="http://www.w3.org/2000/svg">
<metadata>
This is a custom SVG font generated by IcoMoon.
<iconset grid="16"></iconset>
</metadata>
<defs>
<font id="33-icons" horiz-adv-x="512" >
<font-face units-per-em="512" ascent="480" descent="-32" />
<missing-glyph horiz-adv-x="512" />
<glyph class="hidden" unicode="&#xf000;" d="M0,480L 512 -32L0 -32 z" horiz-adv-x="0" />
<glyph unicode="&#xe000;" d="M 254.496,480C 113.952,480,0,366.048,0,225.568s 113.952-254.432, 254.496-254.432c 140.512,0, 254.432,113.952, 254.432,254.432
	S 395.008,480, 254.496,480z M 388,104L 120,104 l0,48 l 268,0 L 388,104 z M 388,200L 120,200 l0,48 l 268,0 L 388,200 z M 388,296L 120,296 L 120,348 l 268,0 L 388,296 z" />
<glyph unicode="&#xe01c;" d="M 72,77.056c0,10.432, 2.944,26.048, 17.344,41.44c 7.616,8, 15.904,14.88, 25.056,20.672
		c 4.288,2.624, 8.608,5.312, 13.792,8.64c 5.344,3.136, 11.136,6.304, 16.704,8.8c 5.92,2.88, 12.576,6.432, 19.776,10.56
		c 8.576,5.056, 18.304,10.304, 29.344,16.064c 2.72,1.408, 5.952,2.528, 8.8,3.872c 1.856,3.040, 3.712,6.080, 5.376,9.536
		c 4.256,8.736, 8.544,18.464, 12.768,29.184C 219.2,230.048, 217.312,233.952, 215.616,238.24C 210.24,250.688, 207.36,263.136, 207.104,275.264
		C 206.88,283.328, 206.816,292.8, 206.816,303.68c0,3.744-0.096,7.744-0.288,12.512l-0.256,8L 206.080,330.112c-0.064,1.504, 0.032,2.784,0,4.288
		C 204.224,336, 202.656,338.24, 200.608,339.52C 195.264,342.816, 189.344,345.152, 182.944,346.56C 176.48,347.936, 169.696,348.672, 162.592,348.672
		c-7.072,0-13.856-0.704-20.288-2.080C 135.808,345.152, 129.92,342.816, 124.608,339.52S 114.624,331.808, 110.592,326.24C 106.528,320.672, 103.2,313.536, 100.64,304.96
		c-0.736-2.56-1.184-5.44-1.28-8.736c-0.128-3.264-0.128-6.688,0-10.24c 0.096-3.552, 0.224-7.104, 0.32-10.624
		C 99.84,271.808, 99.904,268.48, 99.904,265.44c0-7.84, 0.064-14.688, 0.192-20.512c 0.128-5.856, 1.568-12.032, 4.384-18.624
		c 4.288-10.912, 8.576-20.832, 12.896-29.792c 4.32-9.024, 9.248-16.48, 14.848-22.272C 121.344,172.192, 111.392,169.504, 102.4,166.048
		c-9.024-3.392-17.312-7.104-24.896-10.976c-7.584-4-14.464-7.68-20.544-11.264c-6.048-3.52-11.488-6.4-16.32-8.704
		c-3.808-1.76-7.328-3.712-10.624-5.664c-3.328-2.080-6.624-4.128-9.888-6.144c-5.088-3.232-9.696-7.168-13.856-11.52
		C 2.080,107.328,0,102.592,0,97.472l0-33.792 l 72,0 L 72,77.056 zM 512,114.656c-2.848,1.856-5.696,3.68-8.672,5.6c-4.416,2.624-9.184,5.248-14.272,7.552
	c-6.528,3.2-13.952,7.072-22.304,11.808c-8.384,4.8-17.728,9.824-27.968,15.2c-10.208,5.248-21.504,10.176-33.824,14.816
	c-12.288,4.672-25.696,8.256-40.032,11.072c 7.52,8.192, 14.144,18.208, 20.032,30.176c 5.824,12, 11.648,25.312, 17.472,40.064
	c 3.712,8.832, 5.632,17.184, 5.632,25.056s0,17.088,0,27.68c0,7.84, 0.256,17.088, 1.024,27.68c 0.672,10.624, 0.16,19.2-1.568,25.632
	c-3.36,11.616-8,21.248-13.568,28.736c-5.632,7.488-12.128,13.44-19.264,17.952c-7.2,4.448-15.232,7.584-23.84,9.472
	C 342.112,415.040, 332.992,416, 323.392,416S 304.672,415.040, 296,413.184c-8.768-1.92-16.704-5.056-23.872-9.472C 264.928,399.2, 258.656,393.248, 253.184,385.76
	S 243.264,368.64, 239.776,356.992c-0.96-3.424-1.568-7.328-1.728-11.808c-0.192-4.384-0.192-9.024,0-13.824c 0.128-4.736, 0.32-9.568, 0.448-14.304
	c 0.192-4.8, 0.288-9.248, 0.288-13.376c0-10.592, 0.064-19.808, 0.256-27.68s 2.080-16.224, 5.92-25.056c 5.76-14.752, 11.552-28.192, 17.376-40.288
	c 5.824-12.128, 12.48-22.144, 20.032-29.984C 267.712,177.888, 254.272,174.304, 242.176,169.632c-12.16-4.64-23.328-9.568-33.6-14.816
	c-10.272-5.376-19.52-10.368-27.712-15.2c-8.16-4.736-15.52-8.64-22.048-11.808c-5.152-2.304-9.92-4.928-14.336-7.552
	c-4.48-2.816-8.928-5.632-13.344-8.32c-6.848-4.384-13.088-9.696-18.72-15.552c-5.632-6.016-8.448-12.384-8.448-19.328l0-45.632 L 512,31.424 L 512,114.656 z" />
<glyph unicode="&#xe01b;" d="M 223.392,336.448L 223.392,432.064 c-45.6-9.344-86.688-28.032-123.2-56C 63.584,348, 37.76,313.92, 22.72,273.792
		C 7.552,233.664,0,182.24,0,119.584l0-119.456 l 223.392,0 L 223.392,261.472 L 168.16,261.472 C 172.608,292.736, 191.008,317.728, 223.392,336.448zM 480,337.344L 480,433.248 c-45.76-9.376-86.912-28.128-123.552-56.16C 319.744,348.96, 293.888,314.752, 278.784,274.528
		C 263.584,234.304, 256,182.784, 256,119.936l0-119.776 l 224,0 L 480,262.176 l-55.36,0 C 429.056,293.536, 447.52,318.592, 480,337.344z" />
<glyph unicode="&#xe00f;" d="M 256.512,480C 114.848,480,0,365.152,0,223.488s 114.848-256.512, 256.512-256.512s 256.512,114.848, 256.512,256.512S 398.144,480, 256.512,480
	z M 196.288,126.944L 144.064,126.944 L 144.064,297.92 l 52.224,0 L 196.288,126.944 z M 169.76,318.72c-16.32,0-26.912,11.84-26.912,26.528c0,15.104, 11.040,26.528, 27.744,26.528
	c 16.736,0, 27.328-11.424, 27.328-26.528C 198.336,330.56, 187.328,318.72, 169.76,318.72z M 387.68,126.944L 335.040,126.944 L 335.040,221.6 c0,22.048-7.328,37.12-26.496,37.12
	c-14.304,0-22.88-10.208-26.944-20C 280.384,235.072, 279.936,230.176, 279.936,225.28l0-98.336 L 227.712,126.944 L 227.712,243.232 c0,21.216-0.8,39.168-1.248,54.656l 45.312,0 
	L 274.24,273.824l 0.8,0 c 6.944,11.424, 24.064,27.776, 52.224,27.776c 34.272,0, 60.416-23.296, 60.416-73.888L 387.68,126.944 z" />
<glyph unicode="&#xe010;" d="M 459.68,312.576c 0.224-4.48, 0.288-9.024, 0.288-13.536c-0.032-138.56-105.44-298.304-298.304-298.304
		c-59.2,0-114.336,17.376-160.704,47.136c 8.192-1.024, 16.576-1.536, 24.992-1.536c 49.184,0, 94.336,16.832, 130.208,44.896
		c-45.888,0.832-84.576,31.2-97.888,72.8c 6.368-1.248, 12.96-1.92, 19.68-1.92c 9.568,0, 18.816,1.28, 27.616,3.712
		C 57.632,175.456, 21.472,217.856, 21.472,268.672c0,0.448,0,0.896, 0.032,1.28C 35.648,262.048, 51.84,257.376, 68.992,256.864
		c-28.16,18.784-46.688,50.848-46.688,87.264c0,19.232, 5.184,37.248, 14.176,52.672c 51.744-63.392, 128.992-105.184, 216.096-109.536
		C 250.816,294.912, 249.92,302.976, 249.92,311.2C 249.92,369.056, 296.896,416, 354.784,416c 30.144,0, 57.376-12.704, 76.576-33.12
		c 23.776,4.704, 46.176,13.44, 66.496,25.44c-7.84-24.48-24.448-45.024-46.112-58.016c 21.216,2.528, 41.408,8.192, 60.224,16.544
		C 497.92,345.792, 480.16,327.36, 459.68,312.576z" />
<glyph unicode="&#xe011;" d="M 257.344,310.848l 13.536-40.576L 283.648,232l 40.352,0 l 38.4,0 l-32-23.296L 297.504,184.8l 12.608-38.688l 13.088-40.352
			l-34.304,24.832l-32.832,23.776l-32.832-23.744l-34.368-24.864l 13.12,40.352l 12.576,38.688L 181.632,208.704L 150.016,231.712l 41.44-0.096L 232.96,231.488
			l 12.192,39.648L 257.344,310.848 M 256.032,465.984c-8.256,0-13.632-13.12-15.552-19.424L 191.616,287.616L 32,288C 31.104,288, 29.952,288, 28.576,288
			C 19.328,288, 1.056,287.424, 1.056,278.56c0-6.784, 8.736-14.048, 14.080-17.984l 133.568-97.152l-51.008-156.832c-1.472-4.832-2.912-9.696-2.912-15.040
			c0-5.856, 2.4-11.2, 8.736-11.2c 6.784,0, 13.568,4.416, 18.944,8.256l 133.536,96.672l 133.504-96.672c 4.864-3.84, 12.16-8.256, 18.464-8.256
			c 6.816,0, 8.768,5.344, 8.768,11.648c0,4.864-0.992,9.728-2.432,14.56l-51.008,156.832l 133.536,97.152c 4.864,3.904, 14.048,11.168, 14.048,18.496
			c0,8.384-20.96,8.96-31.104,8.96c-1.6,0-2.912,0-3.84,0l-152,0 L 271.072,446.592C 269.12,452.896, 264.256,465.984, 256.032,465.984L 256.032,465.984z" />
<glyph unicode="&#xe012;" d="M 448.128,299.104L 447.712-32L 133.6-32 L 133.6,381.856 l 231.744,0 L 448.128,299.104z M 381.92,34.208L 381.92,265.984 l-49.6,0 L 332.32,315.616 l-132.48,0 
		l0-281.408 L 381.92,34.208 zM 117.344,132.512L 66.176,132.512L 66.176,413.824L 198.592,413.824L 198.592,398.656L 312.992,398.656L 231.648,480L0,480L0,66.304L 117.344,66.304 z" />
<glyph unicode="&#xe013;" d="M 404.8,370.816c-22.944,22.912-60.704,22.912-83.616,0c-22.912-22.88-22.912-60.672,0-83.584
		c 22.912-22.88, 60.672-22.88, 83.616,0C 427.616,310.144, 427.616,347.968, 404.8,370.816zM 417.44,421.408l 35.968-35.968l0-91.136 l-247.104-247.104L 79.2,174.304l 247.072,247.104L 417.44,421.408  M 440.64,477.408L 303.104,477.408 
	L0,174.304L 206.304-32l 303.104,303.104L 509.408,408.64 L 440.64,477.408L 440.64,477.408z" />
<glyph unicode="&#xe014;" d="M 51.552,183.168c 3.904,11.712, 6.496,24.064, 9.76,35.776l 18.848,53.28c 37.056,36.416, 75.392,74.144, 124.16,94.272
			l 39.68-22.752l 50.688,56.576c 5.216,6.496, 9.12,11.712, 18.208,11.712c 16.864,0, 27.328-19.488, 27.328-34.432c0-7.84-4.576-11.072-9.792-16.896
			L 287.488,311.904l 53.984-35.104c 17.568-11.072, 27.328-15.584, 48.736-16.256l 7.808,13.632l 97.536-6.528l 12.96-46.144l 2.656-66.272l-16.928-91.072
			l-96.224-1.92l-9.088,34.432l-59.168-12.384l-59.808,5.888c-22.112,2.56-63.744-4.608-89.056-4.608c-28.608,0-53.344,6.496-80.64,15.008
			l-35.104-38.336l-48.096-18.176c-1.952-0.672-11.040-4.544-13.664-4.544c-4.544,0-3.904,3.84-1.984,7.136l 4.576,9.728l 27.296,57.888
			l 5.856,7.2l-7.776,8.416L 51.552,183.168z M 24.896,78.464c-2.624-4.48-5.888-9.728-5.888-15.584c0-3.232, 1.312-7.104, 5.216-7.104
			c 6.496,0, 15.616,5.184, 20.8,7.104c 3.264,1.984, 16.256,5.248, 16.256,10.432c0,6.496-13.632,26.624-19.488,26.624
			c-2.624,0-4.544-1.952-6.528-3.2L 24.896,78.464z M 48.96,131.84c 18.848,0, 23.392,25.984, 23.392,40.288c0,7.776-1.952,12.384-8.448,16.256
			l-22.72-55.936L 48.96,131.84z M 107.456,278.112C 91.872,263.776, 89.92,263.136, 82.752,243.648L 65.888,194.88l 12.352-6.496l 4.544-19.488l-14.944-36.448
			l 10.4,0 c 17.536,16.288, 26.016,26.656, 35.744,48.128l 14.304,32.544l 104,117.664c-6.496,4.544-21.44,18.848-27.968,18.848
			c-13.632,0-50.688-29.28-60.48-38.368L 107.456,278.112z M 353.824,250.784L 275.84,298.272L 238.784,256.64l 0.64-12.992c0-9.728-1.312-17.536-4.544-27.296
			L 206.272,181.888l 8.448-0.64c 18.208,0, 37.728,9.056, 53.952,15.584c-3.232-11.008-11.68-18.176-20.8-24.64L 175.072,168.864
			c-27.328-0.64-22.752-0.64-47.456-12.352c-14.976-7.2-24.672-14.304-24.672-33.184c0-14.24, 11.712-13.6, 22.752-15.584
			c 4.544-0.672, 9.76-1.952, 14.304-1.952c 9.12,0, 11.712,7.776, 11.712,15.616c0,11.648-5.216,26.592-3.904,29.856
			c 9.088,0, 13.024-18.848, 13.024-25.312c0-14.304-8.448-16.224-8.448-20.16c0-5.216, 24.032-6.496, 25.344-6.496
			c 30.56-3.904, 60.448,7.776, 91.008,9.792l 11.072-1.984c 15.584-2.592, 33.792-5.856, 50.048-5.856c 20.8,0, 48.096,7.84, 68.256,13.664
			l 4.576,1.28c 3.264,19.52, 7.136,38.336, 7.136,57.888c0,24.672-5.856,49.408-13.6,72.8L 353.824,250.784z M 174.4,182.528
			c 5.248-1.28, 11.072-1.984, 16.288-1.984c 19.488,0, 37.056,44.192, 35.104,61.76L 174.4,182.528z" />
<glyph unicode="&#xe015;" d="M 318.368,115.232c0-22.304-19.264-27.872-37.856-32.256c-26.624-5.504-68.128-12.32-96-12.32
			c-33.408,0-45.824,10.496-74.304,26.56C 94.080,105.92, 95.36,104.672, 76.192,106.528l-36.576,4.992c-7.392,1.12-17.952,0.64-22.912,8
			C 4.96,138.784,0,175.328,0,197.632C0,221.12, 3.712,252.704, 17.344,272.544c 8.672,13.024, 17.952,13.6, 33.44,14.272
			C 76.192,288.608, 83.008,288.032, 105.92,301.056l 69.344,33.408C 195.104,343.168, 201.92,346.24, 223.552,346.24c 37.152,0, 77.44-6.176, 114.56-11.744
			c 33.504-4.96, 64.416-16.736, 96.032-27.872c 15.488-5.536, 74.944-25.408, 74.944-45.216c0-18.592-50.112-19.84-63.2-19.84
			c-31.616,0-63.712,15.52-100.288,15.52l-8.064-2.496c 9.888-8.672, 25.376-21.088, 25.376-35.296c0-18.592-16.736-29.12-32.192-34.688
			c 7.36-7.424, 11.712-16.736, 11.712-27.264c0-16.672-11.104-22.88-25.344-26.624L 318.368,115.232z" />
<glyph unicode="&#xe018;" d="M 256.96-32C 115.136-32,0,83.104,0,224.928c0,141.856, 115.136,256.96, 256.96,256.96c 141.856,0, 256.96-115.104, 256.96-256.96
		C 513.952,83.104, 398.816-32, 256.96-32z M 352.576,224.928L 232.8,344.192l-36.48-36.48l 82.72-82.752l-82.72-82.72l 36.48-36.48L 352.576,224.928z" />
<glyph unicode="&#xe019;" d="M 512,138.88l-128.096,0 L 383.904-32 L0-32 L0,266.496 l 128.128,0 L 128.128,437.312 L 512,437.312 L 512,138.88 z M 341.152,10.72L 341.152,181.568 L 42.688,181.568 l0-170.848 L 341.152,10.72 z
		 M 469.28,181.568L 469.28,351.904 L 170.784,351.904 l0-85.376 l 213.12,0 l0-84.928 L 469.28,181.6 z" />
<glyph unicode="&#xe00b;" d="M 255.776,480C 114.496,480,0,365.504,0,224.224c0-141.248, 114.496-255.776, 255.776-255.776c 141.248,0, 255.776,114.528, 255.776,255.776
	C 511.52,365.504, 396.992,480, 255.776,480z M 395.872,304.608c-10.848-55.648-94.496-206.624-165.888-206.624c-34.72,0-46.336,59.776-53.024,85.984
	c-4.096,16-8.224,32.48-13.824,48.544C 160.128,241.088, 157.92,250.464, 154.56,258.656C 151.552,265.76, 147.424,273.6, 138.464,273.6
	c-8.544,0-16.416-5.216-24.992-5.216c-10.080,0-9.696,6.72-15.328,12.32L 98.144,282.56 c 23.52,18.304, 63.52,61.632, 94.144,61.632
	c 49.696,0, 31.008-119.168, 59.392-148.672C 255.040,191.776, 259.52,188.416, 265.12,188.416c 20.16,0, 42.24,54.912, 42.24,72.864c0,24.64-17.568,25.408-37.376,23.904
	c 11.584,35.136, 47.072,66.88, 85.152,66.88c 23.232,0, 41.856-8.96, 41.856-34.752C 396.96,313.216, 396.64,309.088, 395.872,304.608z" />
<glyph unicode="&#xe00a;" d="M 256.672,480C 114.944,480,0,365.12,0,223.36c0-141.792, 114.944-256.704, 256.672-256.704s 256.672,114.944, 256.672,256.704
	C 513.344,365.12, 398.4,480, 256.672,480z M 282.304,140.832c-20.608,0-40,11.136-46.656,23.744c0,0-11.040-43.968-13.44-52.448
	c-4.032-14.752-11.968-29.408-19.2-40.864l-17.536-20.288l-4.992,28.544c-0.544,13.28-0.064,29.312, 3.328,43.808
	c 3.68,15.456, 24.576,104, 24.576,104s-6.080,12.128-6.080,30.144c0,28.32, 16.384,49.376, 36.8,49.376c 17.344,0, 25.76-13.024, 25.76-28.64
	c0-17.44-11.168-43.52-16.896-67.712C 243.232,190.304, 258.144,173.824, 278.112,173.824c 36.16,0, 60.512,46.432, 60.512,101.44
	c0,41.824-28.192,73.152-79.392,73.152c-57.888,0-93.984-43.2-93.984-91.392c0-16.672, 4.896-28.352, 12.608-37.44
	c 3.52-4.192, 4-5.856, 2.752-10.624C 179.68,205.408, 177.568,196.96, 176.704,193.6c-1.28-4.8-5.184-6.528-9.536-4.736
	C 140.48,199.712, 128.064,228.896, 128.064,261.728c0,54.208, 45.696,119.232, 136.384,119.232c 72.864,0, 120.832-52.704, 120.832-109.344
	C 385.28,196.8, 343.648,140.832, 282.304,140.832z" />
<glyph unicode="&#xe009;" d="M 256,480C 114.624,480,0,365.408,0,224.032c0-141.344, 114.624-256, 256-256c 141.376,0, 256,114.656, 256,256C 512,365.408, 397.408,480, 256,480z
			 M 279.328,298.464c0-54.56-42.688-60.736-42.688-77.056c0-14.496, 55.424-36.064, 55.424-85.824c0-55.456-51.456-78.816-99.936-78.816
			c-41.344,0-90.176,17.696-90.176,66.976c0,51.904, 57.216,66.496, 99.456,66.496C 196.096,204.736, 191.296,188.864, 191.296,219.232L 188.64,219.232 
			C 147.712,218.752, 119.104,246.080, 119.104,287.456c0,35.712, 22.848,61.216, 55.904,72.224c 27.744,8.736, 80.096,6.112, 107.392,6.112
			c 4.416,0, 9.696,0.448, 9.696-4.832c0-14.016-22.464-14.016-32.128-15.392C 274.464,335.456, 279.328,315.616, 279.328,298.464z M 386.72,289.28l0-53.28 
			l-26.432,0 L 360.288,289.28 L 306.56,289.28 L 306.56,315.616 l 53.728,0 L 360.288,369.344 l 26.432,0 l0-53.728 l 53.248,0 L 439.968,289.28 L 386.72,289.28 zM 232.672,286.176c0,22.88-13.664,60.32-41.344,60.32c-20.704,0-28.192-19.392-28.192-37.44
			c0-22.88, 13.664-60.32, 41.344-60.32C 225.6,248.736, 232.672,268.128, 232.672,286.176zM 143.744,131.648c0-28.16, 30.784-40.544, 54.56-40.544c 24.192,0, 58.56,15.040, 58.56,43.2
			c0,27.68-31.264,39.616-54.624,39.616C 176.32,173.952, 143.744,161.984, 143.744,131.648z" />
<glyph unicode="&#xe008;" d="M 256.672,480C 114.944,480,0,365.056,0,223.328c0-141.792, 114.944-256.672, 256.672-256.672c 141.76,0, 256.672,114.912, 256.672,256.672
		C 513.344,365.056, 398.432,480, 256.672,480z M 324.288,266.784l-3.52-45.6L 273.984,221.184 l0-158.528 L 214.912,62.656 L 214.912,221.184 L 183.616,221.184 L 183.616,266.784 l 31.296,0 L 214.912,281.024 L 214.912,295.296 L 214.912,297.664 
		c0,13.504, 0.416,34.080, 10.304,47.168c 10.336,13.472, 24.608,22.976, 48.768,22.976c0,0, 39.648,0, 56.672-5.952l-7.968-46.752
		C 309.632,319.072, 297.344,319.072, 297.344,319.072c-12.288,0-23.36-4.384-23.36-16.64l0-4.8 l0-16.64 l0-14.24 L 324.288,266.752 L 324.288,266.784z" />
<glyph unicode="&#xe007;" d="M 255.776,480C 114.496,480,0,365.504,0,224.224c0-141.248, 114.496-255.776, 255.776-255.776c 141.248,0, 255.776,114.528, 255.776,255.776
		C 511.52,365.504, 396.992,480, 255.776,480z M 389.088,286.496c 0.128-2.656, 0.192-5.376, 0.192-8.096c0-82.752-63.008-178.176-178.176-178.176
		c-35.36,0-68.288,10.336-96,28.16c 4.896-0.608, 9.92-0.896, 14.944-0.896c 29.344,0, 56.352,10.016, 77.76,26.816
		c-27.392,0.512-50.528,18.624-58.496,43.488c 3.84-0.736, 7.744-1.12, 11.744-1.12c 5.728,0, 11.264,0.736, 16.544,2.208
		c-28.672,5.76-50.272,31.072-50.272,61.44c0,0.256,0,0.544,0,0.736c 8.416-4.704, 18.080-7.52, 28.352-7.808
		c-16.8,11.2-27.872,30.368-27.872,52.096c0,11.52, 3.104,22.24, 8.48,31.488c 30.912-37.888, 77.024-62.816, 129.088-65.408
		C 264.352,276, 263.808,280.768, 263.808,285.728c0,34.528, 28.064,62.592, 62.656,62.592c 17.984,0, 34.304-7.584, 45.664-19.744
		c 14.304,2.784, 27.68,8, 39.808,15.168c-4.672-14.624-14.592-26.912-27.584-34.656c 12.672,1.504, 24.704,4.896, 36.032,9.856
		C 411.968,306.336, 401.376,295.328, 389.088,286.496z" />
<glyph unicode="&#xe005;" d="M 162.336,344.416c0,0-1.504-6.848-11.424-19.072C 141.024,313.152, 99.136,286.432, 99.136,286.432l 148.832-205.6
		l 61.696,51.136c0,0, 9.984,12.192, 22.144,2.304c 12.128-9.952, 90.752-77.632, 90.752-77.632s-12.16-55.008-28.896-65.568
		c-16.704-10.752-75.392-48.192-184.448,11.872c-109.088,60.192-199.232,238.4-208.48,326.816c-2.336,22.080-3.904,80, 76.032,148.704
		C 85.184,483.84, 126.336,474.688, 130.176,459.456C 134.016,444.224, 162.336,344.416, 162.336,344.416z" />
<glyph unicode="&#xe006;" d="M 149.12-28.928C0,248.416,0,330.88,0,330.88C0,413.312, 66.688,480, 149.12,480c 82.496,0, 149.184-66.72, 149.184-149.12
			C 298.272,330.88, 298.272,248.416, 149.12-28.928z M 149.12,374.656c-24.416,0-43.744-19.392-43.744-43.776c0-24.416, 19.328-43.808, 43.744-43.808
			c 24.416,0, 43.808,19.36, 43.808,43.808C 192.896,355.296, 173.536,374.656, 149.12,374.656z" />
<glyph unicode="&#xe004;" d="M 480,32L 480,295.584 L 253.728,106.88L 225.792,106.88 L0,295.584L0,32 L 480,32 z M 240,158.176L 480,351.904L0,351.904 L 240,158.176z" />
<glyph unicode="&#xe003;" d="M 385.6,188.64l 55.104,55.072l0-162.944 c0-10.112-1.856-19.68-5.568-28.672s-8.896-16.8-15.552-23.424
		c-6.56-6.624-14.432-11.808-23.392-15.552c-8.928-3.68-18.528-5.568-28.672-5.568L 73.248,7.552 c-10.144,0-19.712,1.888-28.704,5.568
		c-8.992,3.744-16.8,8.928-23.424,15.552s-11.84,14.432-15.552,23.424C 1.856,61.056,0,70.624,0,80.736L0,374.368 
		c0,10.176, 1.856,19.744, 5.536,28.704c 3.744,8.992, 8.896,16.8, 15.552,23.456c 6.656,6.624, 14.464,11.808, 23.424,15.52
		c 8.992,3.712, 18.56,5.568, 28.704,5.568l 294.144,0 c 2.368,0, 4.704,0.064, 7.040,0.32c 2.4,0.192, 4.704-0.096, 7.040-0.896l-53.28-53.92L 73.248,393.12 
		c-5.472,0-9.888-1.792-13.184-5.28C 56.736,384.352, 55.072,379.84, 55.072,374.368l0-293.6 c0-5.44, 1.696-9.824, 5.024-13.184
		c 3.296-3.264, 7.712-4.928, 13.184-4.928l 294.208,0 c 5.408,0, 9.856,1.696, 13.152,4.928c 3.328,3.36, 5.024,7.744, 5.024,13.184L 385.664,188.64 L 385.6,188.64 z
		 M 433.664,446.432l 78.496-79.072l-210.944-210.432l-116.032-38.048l 37.472,116.608L 433.664,446.432z M 238.496,226.112l-25.792-78.56L 291.264,172.8L 238.496,226.112
		z" />
<glyph unicode="&#xe002;" d="M 447.648,144.992c 5.952-2.784, 11.488-5.76, 16.672-8.928c 5.184-3.168, 10.144-6.4, 14.912-9.536
			c 7.936-5.152, 15.392-11.264, 22.336-18.208C 508.512,101.376, 512,93.92, 512,85.984l0-53.024 L0,32.96 l0,53.024 c0,7.936, 3.296,15.424, 9.824,22.4
			c 6.56,6.912, 13.792,12.992, 21.792,18.144c 5.12,3.2, 10.304,6.368, 15.488,9.536c 5.152,3.2, 10.72,6.208, 16.672,8.992
			c 7.552,3.552, 16.064,8.096, 25.6,13.696C 98.944,164.32, 109.664,170.176, 121.6,176.352s 24.96,11.968, 39.040,17.28c 14.112,5.408, 29.728,9.632, 46.784,12.8
			c-8.768,9.152-16.48,20.8-23.264,34.912C 177.408,255.424, 170.656,271.008, 163.936,288.096C 159.552,298.432, 157.28,308.16, 157.056,317.312
			C 156.832,326.432, 156.768,337.152, 156.768,349.472c0,4.768-0.128,9.952-0.32,15.488C 156.256,370.528, 156.032,376.064, 155.84,381.632
			c-0.192,5.6-0.192,10.976,0,16.096c 0.192,5.152, 0.928,9.728, 2.080,13.76c 3.968,13.504, 9.152,24.64, 15.488,33.344
			c 6.4,8.736, 13.728,15.68, 22.080,20.864C 203.84,470.848, 213.088,474.528, 223.232,476.768C 233.344,478.912, 244,480, 255.104,480
			c 11.104,0, 21.728-1.088, 31.872-3.232c 10.112-2.24, 19.36-5.856, 27.744-11.072c 8.352-5.184, 15.776-12.096, 22.336-20.864
			c 6.528-8.736, 11.808-19.872, 15.776-33.344c 1.984-7.552, 2.56-17.472, 1.792-29.856c-0.8-12.32-1.184-23.040-1.184-32.16
			c0-12.32,0-23.040,0-32.16s-2.208-18.848-6.56-29.184c-6.752-17.152-13.536-32.576-20.256-46.496c-6.752-13.952-14.528-25.664-23.264-35.2
			c 16.672-3.168, 32.192-7.488, 46.464-12.8c 14.368-5.408, 27.424-11.2, 39.36-17.344s 22.752-12, 32.48-17.568
			C 431.456,153.152, 440.096,148.608, 447.648,144.992z" />
<glyph unicode="&#xe001;" d="M 243.616,107.168L 126.176,224.64l 118.112,118.592L 175.52,412L 37.696,273.664L 8.384,244.384
	C 2.752,238.784,0,232.192,0,224.64c0-7.584, 2.752-14.144, 8.384-19.744L 174.848,38.4L 243.616,107.168zM 503.648,244.384l-167.392,167.392L 267.392,342.912l 117.824-118.304l-117.152-117.152l 68.768-68.768l 136.896,136.864
	l 29.92,29.344C 509.184,210.464, 512,217.056, 512,224.64C 512,232.192, 509.184,238.784, 503.648,244.384z" />
<glyph unicode="&#xe00c;" d="M 296.192,182.048c-5.6,0-10.592-3.168-14.336-7.168L 281.856,209.12 L 265.696,209.12 l0-106.784 l 16.16,0 l0,6.304 
		c 4.672-4.992, 8.448-7.264, 15.296-7.264c 10.88,0, 14.656,7.52, 14.656,17.472L 311.808,162.464 C 311.776,172.672, 308,182.048, 296.192,182.048z M 295.264,120.384
		c0-4.032-1.248-6.464-5.632-6.464c-3.744,0-5.28,0.896-7.776,3.424L 281.856,166.528 c 1.888,1.824, 4.032,3.040, 6.88,3.040
		c 4.928,0, 6.528-3.040, 6.528-7.776L 295.264,120.384 zM 233.952,121.344c-2.208-2.496-5.92-5.984-9.664-5.984c-3.392,0-4,2.624-4,5.376L 220.288,181.056 L 204.032,181.056 
		l0-66.24 c0-7.136, 3.136-13.728, 11.2-13.728c 6.56,0, 14.304,5.28, 18.688,9.952l0-8.704 l 15.84,0 L 249.76,181.056 L 233.952,181.056 L 233.952,121.344 zM 253.536,265.76c 5.344,0, 8.736,2.496, 8.736,8.032L 262.272,327.040 c0,4.352-4.672,7.2-8.736,7.2
		c-4.032,0-8.096-2.816-8.096-7.2l0-53.248 C 245.44,268.864, 248.544,265.76, 253.536,265.76zM 204.352,209.12L 148.64,209.12L 148.64,193.568L 167.36,193.568L 167.36,102.304L 185.376,102.304L 185.376,193.568L 204.352,193.568 	zM 348.48,183.328c-14.016,0-24.608-9.056-24.608-23.36L 323.872,124.8 c0-14.688, 8.096-24.672, 23.36-24.672
		c 16.192,0, 23.904,8.736, 23.904,24.672l0,5.856 l-16.48,0 c0-6.464, 2.24-16.48-7.168-16.48c-6.848,0-6.848,5.632-6.848,10.912l0,14.944 l 30.464,0 
		l0,19.904 C 371.168,174.24, 363.104,183.328, 348.48,183.328z M 354.688,152.128l-14.016,0 L 340.672,160.832 c0,5.024, 1.568,8.448, 7.168,8.448
		c 5.28,0, 6.848-3.744, 6.848-8.448L 354.688,152.128 zM 255.776,480C 114.496,480,0,365.504,0,224.224c0-141.248, 114.496-255.776, 255.776-255.776c 141.248,0, 255.776,114.528, 255.776,255.776
		C 511.52,365.504, 396.992,480, 255.776,480z M 299.328,348.544l 19.872,0 l0-74.72 c0-3.712, 0.928-6.496, 5.344-6.496c 3.68,0, 9.312,4.672, 11.808,7.488L 336.352,348.544 
		l 19.936,0 l0-97.44 l-19.936,0 L 336.352,262.016 c-5.952-6.24-14.048-12.128-23.040-12.128c-10.624,0-14.016,8.096-14.016,17.408L 299.296,348.544 z M 254.496,351.040
		c 14.912,0, 28-9.344, 28-25.216l0-50.4 c0-18.016-11.808-26.784-28.96-26.784c-16.48,0-28.64,9.984-28.64,27.104L 224.896,326.112 
		C 224.896,343.232, 238.944,351.040, 254.496,351.040z M 173.504,383.072l 14.4-52.576L 189.44,330.496 l 13.696,52.576l 22.688,0 L 208.736,331.744
		C 205.312,321.472, 202.176,316.192, 200,305.92c-0.288-2.528,0-49.472,0-54.784l-22.4,0 c0,4.992, 0.288,50.4,0,52.288
		C 175.424,313.984, 172.32,319.584, 168.576,329.856L 150.816,383.072L 173.504,383.072 z M 391.424,107.936c-1.632-21.088-18.080-33.536-38.304-34.464
		c-30.848-1.6-61.632-1.6-92.448-1.6c-30.784,0-61.92,0-92.416,1.6c-20.224,0.928-36.736,13.376-38.272,34.464
		c-0.928,14.976-1.856,30.208-1.856,45.12c0,14.976, 0.928,30.24, 1.856,45.152c 1.504,21.184, 18.016,33.6, 38.272,34.56
		c 30.496,1.536, 61.632,1.536, 92.416,1.536c 30.816,0, 61.984,0, 92.448-1.536c 20.224-0.928, 36.672-13.376, 38.304-34.56
		c 0.928-14.912, 1.792-30.176, 1.792-45.152C 393.216,138.144, 392.384,122.912, 391.424,107.936z" />
<glyph unicode="&#xe01a;" d="M 481.984,318.464l-134.080,0 L 347.904,385.408 C 347.904,402.208, 334.176,416, 317.28,416L 30.592,416 C 13.76,416,0,402.208,0,385.408l0-162.784 
	C0,205.76, 13.76,192, 30.592,192l 51.424,0 l0-81.984 L 163.712,192l 21.76,0 l0-54.24 c0-15.68, 12.832-28.576, 28.608-28.576l 143.488,0 l 76.384-76.672l0,76.672 l 48.064,0 
	c 15.68,0, 28.576,12.8, 28.576,28.576L 510.592,289.888 C 510.56,305.6, 497.76,318.464, 481.984,318.464z M 478.56,141.184l-44.64,0 l-32,0 l0-31.264 l-21.696,21.856
	l-9.408,9.408l-13.28,0 L 217.472,141.184 L 217.472,192 l 99.808,0 c 16.896,0, 30.624,13.76, 30.624,30.624L 347.904,286.464 l 130.656,0 L 478.56,141.184 z" />
<glyph unicode="&#xe00d;" d="M 255.776,479.84C 114.496,479.84,0,365.344,0,224.064c0-141.248, 114.496-255.776, 255.776-255.776
	c 141.248,0, 255.776,114.528, 255.776,255.776C 511.52,365.344, 396.992,479.84, 255.776,479.84z M 168,149.76c-41.056,0-74.336,33.312-74.336,74.368
	c0,41.024, 33.28,74.304, 74.336,74.304s 74.336-33.28, 74.336-74.304C 242.336,183.072, 209.088,149.76, 168,149.76z M 334.688,149.76
	c-41.056,0-74.368,33.312-74.368,74.368c0,41.024, 33.312,74.304, 74.368,74.304c 41.024,0, 74.304-33.28, 74.304-74.304
	C 408.992,183.072, 375.712,149.76, 334.688,149.76z" />
<glyph unicode="&#xe00e;" d="M 256.672,480C 114.944,480,0,365.12,0,223.36c0-141.792, 114.944-256.704, 256.672-256.704s 256.672,114.944, 256.672,256.704S 398.4,480, 256.672,480z
	 M 157.984,89.664c-20.192,0-36.544,16.384-36.544,36.544c0,20.192, 16.352,36.576, 36.544,36.576s 36.544-16.384, 36.544-36.576
	C 194.528,106.016, 178.176,89.664, 157.984,89.664z M 249.696,89.376c0,34.592-13.312,66.944-37.568,91.264c-24.224,24.352-56.416,37.76-90.656,37.76L 121.472,271.136 
	c 99.808,0, 181.024-81.504, 181.024-181.76L 249.696,89.376 z M 342.944,89.344c0,122.752-99.328,222.592-221.376,222.592L 121.568,364.704 c 151.2,0, 274.112-123.488, 274.112-275.36
	L 342.944,89.344 z" data-tags="rss" />
<glyph unicode="&#x20;" horiz-adv-x="256" />
</font>
</defs>
</svg>
